<svg width="6" height="11" viewBox="0 0 6 11" fill="none" xmlns="http://www.w3.org/2000/svg">
<path d="M5.11972 9.53674e-06C5.60563 9.53674e-06 6 0.397275 6 0.879669C6 1.12796 5.90141 1.34788 5.71831 1.52523L2.08451 5.1219L5.71831 8.71857C5.89437 8.89592 6 9.12293 6 9.36413C6 9.85362 5.60563 10.2509 5.11972 10.2509C4.88028 10.2509 4.67606 10.1658 4.50704 9.9955L0.316902 5.8313C0.105634 5.62558 0 5.39147 0 5.1219C0.00704241 4.85233 0.105634 4.63241 0.323944 4.4125L4.50704 0.248301C4.67606 0.0851374 4.87324 9.53674e-06 5.11972 9.53674e-06Z" fill="white"/>
</svg>
