<svg width="15" height="15" viewBox="0 0 15 15" fill="none" xmlns="http://www.w3.org/2000/svg">
<path opacity="0.4" d="M7.5 15C3.36768 15 0 11.6323 0 7.5C0 3.36768 3.36768 0 7.5 0C11.6323 0 15 3.36768 15 7.5C15 11.6323 11.6323 15 7.5 15ZM7.5 1.42354C4.14859 1.42354 1.42354 4.14859 1.42354 7.5C1.42354 10.8514 4.14859 13.5765 7.5 13.5765C10.8514 13.5765 13.5765 10.8514 13.5765 7.5C13.5765 4.14859 10.8514 1.42354 7.5 1.42354Z" fill="#1D1D1D"/>
<path opacity="0.4" d="M11.8684 8.21577H7.50015C7.1097 8.21577 6.78432 7.89852 6.78432 7.49993V3.13171C6.78432 2.74126 7.10156 2.41588 7.50015 2.41588C7.89874 2.41588 8.21599 2.73312 8.21599 3.13171V6.7841H11.8684C12.2588 6.7841 12.5842 7.10134 12.5842 7.49993C12.5842 7.89852 12.2588 8.21577 11.8684 8.21577Z" fill="#1D1D1D"/>
</svg>
