<svg width="20" height="15" viewBox="0 0 20 15" fill="none" xmlns="http://www.w3.org/2000/svg">
<path d="M19.3748 6.74604L10.281 0.142147C10.0199 -0.0473824 9.66828 -0.0473824 9.40436 0.142147L0.314861 6.74604C0.15009 6.86468 0.0423826 7.04046 0.0109982 7.2394C-0.0232399 7.43833 0.0231245 7.64088 0.140817 7.81016C0.258511 7.97509 0.433268 8.08505 0.63727 8.11977C0.829859 8.14581 1.02887 8.09807 1.19007 7.98449L2.27999 7.19237V14.2375C2.27999 14.6578 2.61737 15 3.0318 15H7.87221C8.28663 15 8.62402 14.6578 8.62402 14.2375V9.39439H11.0621V14.2375C11.0621 14.6578 11.3994 15 11.8139 15H16.655C17.0694 15 17.4068 14.6578 17.4068 14.2375V7.19237L18.4981 7.98449C18.8213 8.21887 19.3106 8.13858 19.5467 7.81016C19.6644 7.6445 19.7107 7.44195 19.6765 7.24229C19.6451 7.04263 19.5381 6.86612 19.3748 6.74604ZM11.8139 7.86947H7.87221C7.4585 7.86947 7.12182 8.21164 7.12182 8.63194V13.4751H3.78361V6.10077L9.84304 1.69817L15.9032 6.10077V13.4751H12.565V8.63194C12.565 8.21164 12.2283 7.86947 11.8139 7.86947Z" fill="#1D1D1D"/>
</svg>
