<svg width="30" height="30" viewBox="0 0 30 30" fill="none" xmlns="http://www.w3.org/2000/svg">
<circle cx="15" cy="15" r="15" fill="#3E3EBA"/>
<path d="M10.2348 16.0681C9.86608 14.4342 10.3556 12.7557 11.5382 11.5731C13.0069 10.1045 15.194 9.74841 17.0059 10.6067L15.5246 10.7975L15.6644 11.9037L19.1613 11.4587L18.4683 8L17.3747 8.22252L17.6735 9.69119C15.4038 8.5277 12.5936 8.94096 10.7498 10.7847C9.29387 12.2343 8.69623 14.3006 9.14764 16.3097C9.23029 16.6785 9.35109 17.0472 9.50368 17.3906C9.59269 17.594 9.78978 17.7275 10.0123 17.7275C10.0886 17.7275 10.1649 17.7148 10.2348 17.683C10.3683 17.6258 10.4764 17.5177 10.5273 17.3778C10.5845 17.238 10.5782 17.0917 10.5209 16.9519C10.4001 16.6658 10.2984 16.3669 10.2348 16.0681Z" fill="white"/>
<path d="M20.7833 13.7092C20.7006 13.3405 20.5862 12.9781 20.4336 12.6284C20.3764 12.4885 20.2683 12.3868 20.1284 12.3296C19.9886 12.2724 19.836 12.2787 19.7025 12.3359C19.5689 12.3932 19.4609 12.5012 19.4036 12.6411C19.3528 12.781 19.3528 12.9336 19.41 13.0671C19.5371 13.3532 19.6325 13.652 19.6961 13.9508C20.0585 15.5784 19.5689 17.2569 18.3927 18.4331C16.9177 19.9018 14.737 20.2578 12.9186 19.3995L14.4 19.2088L14.2601 18.1025L10.7633 18.5476L11.4627 21.9999L12.5562 21.7773L12.2574 20.3087C13.0966 20.741 14.0185 20.9635 14.9658 20.9635C16.549 20.9635 18.0494 20.3405 19.1811 19.2088C20.6243 17.7719 21.2283 15.712 20.7833 13.7092Z" fill="white"/>
</svg>
