<svg width="171" height="228" viewBox="0 0 171 228" fill="none" xmlns="http://www.w3.org/2000/svg">
    <path d="M166.712 223.117H0V0.0527344H16.7832V2.05273H2V221.117H164.712V2.05273H47.8262V0.0527344H166.712V223.117Z"
        fill="black" />
    <path d="M16.4854 217.117H0.0664062V227.117H16.4854V217.117Z" fill="black" />
    <path d="M170.712 227.117H146.699V217.117H160.712V0H170.712V227.117Z" fill="black" />
    <path d="M2 6.07129H0V13.9961H2V6.07129Z" fill="black" />
    <path id="1"
        d="M111.832 142.531H140.175C142.323 142.531 144.065 144.522 144.065 146.977V195.586C144.065 198.042 142.323 200.032 140.175 200.032H111.832C109.684 200.032 107.943 198.042 107.943 195.586V146.977C107.943 144.522 109.684 142.531 111.832 142.531Z"
        fill="#3E3EBA" />
    <path id="2"
        d="M111.832 79.9781H140.175C142.323 79.9781 144.065 81.9689 144.065 84.4247V133.033C144.065 135.489 142.323 137.48 140.175 137.48H111.832C109.684 137.48 107.943 135.489 107.943 133.033V84.4247C107.943 81.9689 109.684 79.9781 111.832 79.9781Z"
        fill="#3E3EBA" />

    <path id="4"
        d="M19.6993 142.531H48.0428C50.1907 142.531 51.932 144.522 51.932 146.977V195.586C51.932 198.042 50.1907 200.032 48.0428 200.032H19.6993C17.5513 200.032 15.8101 198.042 15.8101 195.586V146.977C15.8101 144.522 17.5513 142.531 19.6993 142.531Z"
        fill="#AEAFB7" />
    <path id="5"
        d="M19.6993 79.9781H48.0428C50.1907 79.9781 51.932 81.9689 51.932 84.4247V133.033C51.932 135.489 50.1907 137.48 48.0428 137.48H19.6993C17.5513 137.48 15.8101 135.489 15.8101 133.033V84.4247C15.8101 81.9689 17.5513 79.9781 19.6993 79.9781Z"
        fill="#3E3EBA" />
    <path d="M146.96 217.13H16.5557V227.13H146.96V217.13Z" fill="#D0D4E6" />
    <path id="3"
        d="M111.832 17.3322H140.175C142.323 17.3322 144.065 19.323 144.065 21.7788V70.3873C144.065 72.843 142.323 74.8338 140.175 74.8338H111.832C109.684 74.8338 107.943 72.843 107.943 70.3873V21.7788C107.943 19.323 109.684 17.3322 111.832 17.3322Z"
        fill="#3E3EBA" />
</svg>